<svg id="svg" version="1.1" width="400" height="400" viewBox="0 0 400 400" xmlns="http://www.w3.org/2000/svg" xmlns:xlink="http://www.w3.org/1999/xlink" ><g id="svgg"><path id="path0" d="M271.780 75.562 C 271.571 75.762,270.725 76.302,269.900 76.762 C 268.187 77.719,267.645 78.031,260.800 82.000 C 258.050 83.595,255.215 85.237,254.500 85.650 C 253.785 86.062,252.615 86.738,251.900 87.150 C 251.185 87.563,248.350 89.205,245.600 90.800 C 242.850 92.395,240.015 94.037,239.300 94.450 C 238.585 94.862,237.415 95.538,236.700 95.950 C 235.985 96.363,233.150 98.005,230.400 99.600 C 227.650 101.195,224.815 102.837,224.100 103.250 C 223.385 103.662,222.215 104.338,221.500 104.750 C 220.785 105.163,217.950 106.805,215.200 108.400 C 212.450 109.995,209.615 111.637,208.900 112.050 C 208.185 112.462,207.015 113.138,206.300 113.551 C 196.269 119.348,191.961 121.833,190.800 122.491 C 190.030 122.928,189.220 123.420,189.000 123.585 C 188.780 123.750,187.610 124.426,186.400 125.088 C 185.190 125.750,182.580 127.239,180.600 128.397 C 178.620 129.555,176.370 130.859,175.600 131.294 C 174.830 131.729,174.020 132.220,173.800 132.385 C 173.580 132.550,172.410 133.226,171.200 133.888 C 169.990 134.550,167.380 136.039,165.400 137.197 C 163.420 138.355,161.170 139.659,160.400 140.094 C 159.630 140.529,158.820 141.020,158.600 141.185 C 158.380 141.350,157.210 142.027,156.000 142.690 C 154.790 143.353,151.550 145.201,148.800 146.797 C 146.050 148.393,143.215 150.037,142.500 150.450 C 141.785 150.862,140.615 151.538,139.900 151.951 C 139.185 152.364,135.720 154.366,132.200 156.400 C 128.680 158.434,125.260 160.414,124.600 160.800 C 123.940 161.186,120.520 163.166,117.000 165.200 C 113.480 167.233,109.950 169.280,109.154 169.748 C 108.359 170.217,104.539 172.400,100.664 174.600 C 92.325 179.335,92.409 179.121,97.707 182.109 C 99.958 183.378,102.610 184.889,103.600 185.465 C 104.590 186.042,105.985 186.848,106.700 187.257 C 107.415 187.665,108.585 188.338,109.300 188.751 C 110.015 189.164,113.480 191.166,117.000 193.200 C 120.520 195.234,123.940 197.214,124.600 197.600 C 125.260 197.986,128.680 199.966,132.200 202.000 C 135.720 204.034,139.185 206.036,139.900 206.449 C 140.615 206.862,141.785 207.538,142.500 207.950 C 143.215 208.363,146.050 210.005,148.800 211.600 C 154.623 214.977,155.899 215.713,157.800 216.800 C 158.570 217.240,159.785 217.938,160.500 218.351 C 161.215 218.764,164.680 220.766,168.200 222.800 C 171.720 224.834,175.185 226.836,175.900 227.249 C 176.615 227.662,177.785 228.338,178.500 228.750 C 179.215 229.163,182.050 230.805,184.800 232.400 C 190.623 235.777,191.899 236.513,193.800 237.600 C 194.570 238.040,195.830 238.760,196.600 239.200 C 198.501 240.287,199.777 241.023,205.600 244.400 C 211.423 247.777,212.699 248.513,214.600 249.600 C 215.370 250.040,216.630 250.760,217.400 251.200 C 218.170 251.640,219.406 252.343,220.147 252.763 C 220.887 253.183,222.706 254.263,224.188 255.163 C 225.669 256.063,226.945 256.800,227.023 256.800 C 227.101 256.800,228.118 257.365,229.282 258.056 C 233.630 260.636,234.828 261.230,235.209 260.994 C 236.010 260.500,235.710 222.223,234.900 221.497 C 234.299 220.959,232.173 219.676,225.700 215.949 C 224.985 215.537,223.815 214.862,223.100 214.448 C 222.385 214.035,218.290 211.673,214.000 209.200 C 203.753 203.293,205.085 204.063,194.600 197.992 C 180.542 189.853,175.934 187.180,174.355 186.251 C 173.561 185.783,170.726 184.151,168.055 182.625 C 162.360 179.369,162.257 179.141,165.600 177.228 C 166.150 176.913,168.760 175.405,171.400 173.878 C 174.040 172.350,176.785 170.763,177.500 170.350 C 178.215 169.938,179.385 169.262,180.100 168.849 C 180.815 168.436,184.280 166.434,187.800 164.400 C 191.320 162.366,194.785 160.364,195.500 159.951 C 196.215 159.538,197.430 158.840,198.200 158.400 C 200.101 157.313,201.377 156.577,207.200 153.200 C 209.950 151.605,212.785 149.963,213.500 149.550 C 214.215 149.138,215.385 148.462,216.100 148.049 C 216.815 147.636,220.280 145.634,223.800 143.600 C 227.320 141.566,230.740 139.586,231.400 139.199 C 232.060 138.813,236.110 136.473,240.400 134.000 C 244.690 131.527,248.785 129.165,249.500 128.752 C 251.319 127.700,252.527 127.002,259.800 122.800 C 263.320 120.766,266.740 118.786,267.400 118.399 C 268.060 118.013,272.110 115.673,276.400 113.200 C 280.690 110.727,284.785 108.365,285.500 107.952 C 287.319 106.900,288.527 106.202,295.800 102.000 C 299.320 99.966,302.796 97.961,303.526 97.544 C 307.626 95.196,307.923 95.729,300.000 91.211 C 296.810 89.392,293.615 87.565,292.900 87.152 C 292.185 86.738,291.015 86.062,290.300 85.650 C 289.585 85.237,286.750 83.595,284.000 82.000 C 277.155 78.031,276.613 77.719,274.900 76.762 C 274.075 76.302,273.229 75.762,273.020 75.562 C 272.811 75.363,272.532 75.200,272.400 75.200 C 272.268 75.200,271.989 75.363,271.780 75.562 " stroke="none" fill="#25ac65" fill-rule="evenodd"></path><path id="path1" d="M269.800 160.589 C 268.920 161.091,265.950 162.806,263.200 164.400 C 258.256 167.267,256.832 168.090,254.300 169.549 C 253.585 169.960,251.380 171.244,249.400 172.400 C 244.376 175.334,243.786 175.677,240.400 177.627 C 238.750 178.578,237.268 179.545,237.106 179.778 C 236.944 180.010,236.809 198.965,236.806 221.900 C 236.801 254.991,236.697 263.600,236.300 263.598 C 235.879 263.596,232.932 261.977,225.300 257.553 C 221.369 255.275,206.864 246.898,196.800 241.095 C 191.850 238.240,187.260 235.588,186.600 235.201 C 185.940 234.814,182.520 232.834,179.000 230.800 C 175.480 228.766,172.060 226.786,171.400 226.400 C 170.740 226.014,167.320 224.034,163.800 222.000 C 160.280 219.966,156.815 217.964,156.100 217.551 C 155.385 217.138,154.215 216.462,153.500 216.050 C 152.785 215.637,149.950 213.995,147.200 212.400 C 144.450 210.805,141.615 209.163,140.900 208.750 C 140.185 208.338,139.015 207.662,138.300 207.250 C 137.585 206.837,134.750 205.195,132.000 203.600 C 126.382 200.342,124.969 199.526,123.100 198.456 C 122.385 198.047,120.810 197.121,119.600 196.400 C 117.531 195.166,116.904 194.802,113.400 192.800 C 112.630 192.360,111.370 191.640,110.600 191.200 C 107.096 189.198,106.469 188.834,104.400 187.600 C 103.190 186.879,101.615 185.953,100.900 185.544 C 97.668 183.694,96.703 183.146,95.300 182.362 C 94.475 181.902,93.629 181.362,93.420 181.162 C 92.024 179.831,91.990 180.334,92.096 200.866 L 92.200 220.931 93.400 221.609 C 94.060 221.982,95.230 222.650,96.000 223.095 C 97.250 223.816,108.164 230.121,111.500 232.049 C 112.215 232.462,113.430 233.160,114.200 233.600 C 116.101 234.687,117.377 235.423,123.200 238.800 C 129.023 242.177,130.299 242.913,132.200 244.000 C 132.970 244.440,134.185 245.138,134.900 245.551 C 135.615 245.964,139.080 247.966,142.600 250.000 C 146.120 252.034,149.540 254.014,150.200 254.400 C 150.860 254.786,154.280 256.766,157.800 258.800 C 161.320 260.834,164.740 262.814,165.400 263.201 C 166.060 263.587,170.110 265.927,174.400 268.400 C 178.690 270.873,182.740 273.213,183.400 273.599 C 184.060 273.986,187.480 275.966,191.000 278.000 C 194.520 280.034,197.940 282.014,198.600 282.400 C 199.260 282.786,202.680 284.766,206.200 286.800 C 209.720 288.834,213.185 290.836,213.900 291.249 C 214.615 291.662,215.785 292.338,216.500 292.751 C 217.215 293.164,220.680 295.166,224.200 297.200 C 227.720 299.234,231.140 301.213,231.800 301.599 C 232.460 301.985,235.205 303.583,237.900 305.150 C 240.595 306.718,245.005 309.282,247.700 310.850 C 250.395 312.417,253.140 314.012,253.800 314.394 C 254.460 314.776,255.953 315.653,257.118 316.344 C 258.282 317.035,259.304 317.600,259.388 317.600 C 259.472 317.600,261.008 318.500,262.800 319.600 C 264.592 320.700,266.126 321.600,266.208 321.600 C 266.290 321.600,267.432 322.230,268.746 323.000 C 270.060 323.770,271.329 324.400,271.567 324.400 C 272.071 324.400,272.203 160.172,271.700 159.862 C 271.535 159.761,270.680 160.088,269.800 160.589 " stroke="none" fill="#8c44ac" fill-rule="evenodd"></path><path id="path2" d="M306.600 97.343 C 306.160 97.599,304.630 98.506,303.200 99.359 C 300.739 100.826,299.935 101.294,296.600 103.200 C 295.830 103.640,294.570 104.360,293.800 104.800 C 291.899 105.887,290.623 106.623,284.800 110.000 C 282.050 111.595,279.215 113.237,278.500 113.650 C 277.785 114.062,276.615 114.738,275.900 115.150 C 275.185 115.563,272.350 117.205,269.600 118.800 C 263.777 122.177,262.501 122.913,260.600 124.000 C 258.046 125.459,256.634 126.278,253.000 128.403 C 251.020 129.561,248.410 131.050,247.200 131.712 C 245.990 132.374,244.820 133.050,244.600 133.215 C 244.380 133.380,243.525 133.894,242.700 134.357 C 240.957 135.337,240.297 135.717,233.600 139.600 C 230.850 141.195,228.015 142.837,227.300 143.250 C 226.585 143.662,225.415 144.338,224.700 144.750 C 223.985 145.163,221.150 146.805,218.400 148.400 C 215.650 149.995,212.815 151.637,212.100 152.050 C 211.385 152.462,210.215 153.138,209.500 153.550 C 208.785 153.963,205.950 155.605,203.200 157.200 C 200.450 158.795,197.615 160.437,196.900 160.850 C 196.185 161.262,195.015 161.938,194.300 162.351 C 193.585 162.764,190.120 164.766,186.600 166.800 C 183.080 168.834,179.660 170.813,179.000 171.199 C 171.981 175.303,167.645 177.799,166.903 178.161 C 165.280 178.955,165.925 179.750,170.107 182.109 C 172.358 183.378,174.920 184.841,175.800 185.358 C 180.608 188.183,185.572 191.070,188.600 192.800 C 190.806 194.061,192.342 194.948,196.132 197.149 C 200.395 199.625,199.605 199.625,203.868 197.149 C 207.658 194.948,209.194 194.061,211.400 192.800 C 213.900 191.371,215.339 190.538,219.000 188.400 C 226.319 184.125,233.669 179.853,242.600 174.683 C 264.577 161.961,272.428 157.570,272.794 157.797 C 273.066 157.965,273.200 185.454,273.200 241.251 L 273.200 324.454 274.100 324.178 C 274.595 324.026,275.180 323.760,275.400 323.586 C 275.620 323.413,278.050 321.972,280.800 320.386 C 283.550 318.799,286.385 317.163,287.100 316.750 C 287.815 316.338,288.985 315.663,289.700 315.251 C 291.040 314.480,296.971 311.020,299.800 309.359 C 300.680 308.842,302.885 307.573,304.700 306.538 L 308.000 304.657 308.000 200.728 C 308.000 143.568,307.865 96.818,307.700 96.839 C 307.535 96.861,307.040 97.088,306.600 97.343 " stroke="none" fill="#2c84bc" fill-rule="evenodd"></path></g></svg>